<?xml version="1.0" encoding="UTF-8" standalone="no"?>
<svg
   xmlns:dc="http://purl.org/dc/elements/1.1/"
   xmlns:cc="http://creativecommons.org/ns#"
   xmlns:rdf="http://www.w3.org/1999/02/22-rdf-syntax-ns#"
   xmlns:svg="http://www.w3.org/2000/svg"
   xmlns="http://www.w3.org/2000/svg"
   viewBox="0 0 388.98666 165.08"
   height="165.08"
   width="388.98666"
   xml:space="preserve"
   id="svg2"
   version="1.1"><metadata
     id="metadata8"><rdf:RDF><cc:Work
         rdf:about=""><dc:format>image/svg+xml</dc:format><dc:type
           rdf:resource="http://purl.org/dc/dcmitype/StillImage" /></cc:Work></rdf:RDF></metadata><defs
     id="defs6" /><g
     transform="matrix(1.3333333,0,0,-1.3333333,0,165.08)"
     id="g10"><g
       transform="scale(0.1)"
       id="g12"><path
         id="path14"
         style="fill:none;stroke:#ffffff;stroke-width:20;stroke-linecap:butt;stroke-linejoin:miter;stroke-miterlimit:10;stroke-dasharray:none;stroke-opacity:1"
         d="m 1731.6,271.855 c -69.9,-69.906 -161.74,-104.886 -253.58,-104.886 -91.85,0 -183.66,34.98 -253.6,104.886 -37.34,37.352 -64.62,80.997 -82.01,127.52 h -78.86 c 20.39,-67.316 57.15,-128.984 108.28,-180.105 168.84,-168.8208 443.56,-168.8208 612.38,0 52.03,52.039 87.98,114.148 107.94,180.105 h -78.52 c -17.39,-46.523 -44.67,-90.168 -82.03,-127.52 z" /><path
         id="path16"
         style="fill:none;stroke:#ffffff;stroke-width:20;stroke-linecap:butt;stroke-linejoin:miter;stroke-miterlimit:10;stroke-dasharray:none;stroke-opacity:1"
         d="m 1214.42,966.176 c 139.84,139.844 367.38,139.844 507.18,0 37.37,-37.36 64.66,-81.016 82.05,-127.559 h 78.52 c -19.96,65.977 -55.91,128.106 -107.96,180.153 -81.79,81.78 -190.54,126.84 -306.19,126.84 -115.66,0 -224.42,-45.06 -306.19,-126.84 -51.14,-51.137 -87.91,-112.825 -108.29,-180.153 h 78.85 c 17.39,46.543 44.67,90.199 82.03,127.559 z" /><path
         id="path18"
         style="fill:none;stroke:#ffffff;stroke-width:20;stroke-linecap:butt;stroke-linejoin:miter;stroke-miterlimit:10;stroke-dasharray:none;stroke-opacity:1"
         d="M 473.141,113.422 609.172,249.453 459.246,399.375 h -59.262 c 11.301,-97.539 35.512,-193.836 73.157,-285.953 z" /><path
         id="path20"
         style="fill:none;stroke:#ffffff;stroke-width:20;stroke-linecap:butt;stroke-linejoin:miter;stroke-miterlimit:10;stroke-dasharray:none;stroke-opacity:1"
         d="M 649.895,290.164 759.109,399.375 H 540.684 Z" /><path
         id="path22"
         style="fill:none;stroke:#ffffff;stroke-width:20;stroke-linecap:butt;stroke-linejoin:miter;stroke-miterlimit:10;stroke-dasharray:none;stroke-opacity:1"
         d="m 1844.64,199.539 185.44,-185.3984 235.34,235.3124 -149.9,149.922 h -163.67 c -19.1,-72.187 -54.73,-140.859 -107.21,-199.836 z" /><path
         id="path24"
         style="fill:none;stroke:#ffffff;stroke-width:20;stroke-linecap:butt;stroke-linejoin:miter;stroke-miterlimit:10;stroke-dasharray:none;stroke-opacity:1"
         d="M 690.605,249.453 925.945,14.1406 1111.39,199.539 c -52.45,58.977 -88.11,127.649 -107.17,199.836 H 840.547 Z" /><path
         id="path26"
         style="fill:none;stroke:#ffffff;stroke-width:20;stroke-linecap:butt;stroke-linejoin:miter;stroke-miterlimit:10;stroke-dasharray:none;stroke-opacity:1"
         d="m 1101.39,1038.48 -185.445,185.45 -235.308,-235.313 150,-150 h 163.562 c 19.081,72.207 54.721,140.914 107.191,199.863 z" /><path
         id="path28"
         style="fill:none;stroke:#ffffff;stroke-width:20;stroke-linecap:butt;stroke-linejoin:miter;stroke-miterlimit:10;stroke-dasharray:none;stroke-opacity:1"
         d="m 2255.42,988.617 -235.34,235.313 -185.44,-185.45 c 52.5,-58.949 88.11,-127.625 107.2,-199.863 h 163.58 z" /><path
         id="path30"
         style="fill:none;stroke:#ffffff;stroke-width:20;stroke-linecap:butt;stroke-linejoin:miter;stroke-miterlimit:10;stroke-dasharray:none;stroke-opacity:1"
         d="M 639.918,947.895 530.641,838.617 H 749.18 Z" /><path
         id="path32"
         style="fill:none;stroke:#ffffff;stroke-width:20;stroke-linecap:butt;stroke-linejoin:miter;stroke-miterlimit:10;stroke-dasharray:none;stroke-opacity:1"
         d="M 599.172,988.617 463.141,1124.65 C 425.488,1032.51 401.273,936.18 389.977,838.617 h 59.199 z" /><path
         id="path34"
         style="fill:none;stroke:#ffffff;stroke-width:20;stroke-linecap:butt;stroke-linejoin:miter;stroke-miterlimit:10;stroke-dasharray:none;stroke-opacity:1"
         d="M 2296.14,947.895 2186.88,838.617 h 218.52 z" /><path
         id="path36"
         style="fill:none;stroke:#ffffff;stroke-width:20;stroke-linecap:butt;stroke-linejoin:miter;stroke-miterlimit:10;stroke-dasharray:none;stroke-opacity:1"
         d="m 2306.14,290.164 109.2,109.211 h -218.41 z" /><path
         id="path38"
         style="fill:none;stroke:#ffffff;stroke-width:20;stroke-linecap:butt;stroke-linejoin:miter;stroke-miterlimit:10;stroke-dasharray:none;stroke-opacity:1"
         d="m 2482.92,113.391 c 37.62,92.14 61.83,188.445 73.12,285.984 h -59.25 L 2346.87,249.453 Z" /><path
         id="path40"
         style="fill:none;stroke:#ffffff;stroke-width:20;stroke-linecap:butt;stroke-linejoin:miter;stroke-miterlimit:10;stroke-dasharray:none;stroke-opacity:1"
         d="m 2472.92,1124.65 -136.05,-136.033 149.99,-150 h 59.2 c -11.27,97.563 -35.51,193.893 -73.14,286.033 z" /><path
         id="path42"
         style="fill:#ffffff;fill-opacity:1;fill-rule:nonzero;stroke:none"
         d="m 424.609,498.016 c -10.437,-4.676 -21.957,-8.512 -34.558,-11.512 -12.602,-3 -24.067,-4.5 -34.383,-4.5 -28.074,0 -52.738,5.457 -73.98,16.383 -21.239,10.918 -37.618,26.035 -49.137,45.351 -11.52,19.317 -17.281,41.352 -17.281,66.067 0,30.957 6.121,57.175 18.363,78.656 12.234,21.48 28.672,37.559 49.316,48.242 20.641,10.676 43.438,16.02 68.403,16.02 16.074,0 31.199,-1.801 45.359,-5.399 14.156,-3.605 26.641,-8.281 37.437,-14.043 L 417.23,684.684 c -6.96,3.836 -16.503,7.375 -28.621,10.617 -12.121,3.246 -22.261,4.859 -30.421,4.859 -28.797,0 -50.821,-7.195 -66.059,-21.597 -15.242,-14.399 -22.856,-35.762 -22.856,-64.083 0,-16.328 3.715,-30.546 11.157,-42.656 7.437,-12.129 17.824,-21.426 31.14,-27.91 13.325,-6.473 28.496,-9.707 45.539,-9.707 16.321,0 28.442,2.266 36.364,6.84 v 32.027 H 347.75 v 50.41 h 98.641 V 511.523 c -4.086,-4.328 -11.34,-8.82 -21.782,-13.507" /><path
         id="path44"
         style="fill:#ffffff;fill-opacity:1;fill-rule:nonzero;stroke:none"
         d="m 554.566,574.52 c 7.321,-12.957 17.282,-23.223 29.883,-30.782 12.598,-7.558 26.574,-11.336 41.938,-11.336 14.879,0 28.441,3.778 40.679,11.336 12.243,7.559 21.836,17.754 28.801,30.606 6.961,12.832 10.442,27.051 10.442,42.66 0,15.836 -3.606,30.238 -10.801,43.199 -7.203,12.961 -16.985,23.219 -29.34,30.777 -12.363,7.567 -26.102,11.344 -41.223,11.344 -15.117,0 -28.859,-3.777 -41.218,-11.344 -12.364,-7.558 -22.141,-17.816 -29.34,-30.777 -7.199,-12.961 -10.797,-27.363 -10.797,-43.199 0,-15.363 3.652,-29.524 10.976,-42.484 z m -46.796,109.8 c 12.113,20.883 28.554,37.5 49.316,49.864 20.758,12.359 43.258,18.539 67.5,18.539 24.238,0 46.738,-6.18 67.5,-18.539 20.758,-12.364 37.316,-28.981 49.684,-49.864 12.355,-20.879 18.539,-43.312 18.539,-67.316 0,-24.477 -6.184,-47.043 -18.539,-67.68 -12.368,-20.644 -28.926,-37.027 -49.684,-49.14 -20.762,-12.129 -43.262,-18.18 -67.5,-18.18 -24.481,0 -47.043,6.051 -67.676,18.18 -20.644,12.113 -37.027,28.496 -49.14,49.14 -12.125,20.637 -18.184,43.203 -18.184,67.68 0,24.004 6.059,46.437 18.184,67.316" /><path
         id="path46"
         style="fill:#ffffff;fill-opacity:1;fill-rule:nonzero;stroke:none"
         d="m 866.859,558.68 c 5.039,-7.676 11.758,-13.926 20.161,-18.719 8.402,-4.797 17.398,-7.199 27,-7.199 10.316,0 19.796,2.402 28.441,7.199 8.637,4.793 15.422,11.043 20.344,18.719 4.91,7.675 7.375,15.722 7.375,24.121 v 167.043 h 51.48 V 581.727 c 0,-18.965 -4.8,-36.075 -14.4,-51.305 -9.6,-15.238 -22.619,-27.121 -39.057,-35.637 -16.445,-8.527 -34.508,-12.781 -54.183,-12.781 -19.68,0 -37.68,4.254 -54,12.781 -16.325,8.516 -29.219,20.399 -38.704,35.637 -9.48,15.23 -14.214,32.34 -14.214,51.305 v 168.117 h 52.199 V 582.801 c 0,-8.399 2.519,-16.446 7.558,-24.121" /><path
         id="path48"
         style="fill:#ffffff;fill-opacity:1;fill-rule:nonzero;stroke:none"
         d="m 1245.22,749.844 v -50.403 h -64.44 V 484.883 h -52.2 v 214.558 h -61.92 v 50.403 h 178.56" /><path
         id="path50"
         style="fill:#ffffff;fill-opacity:1;fill-rule:nonzero;stroke:none"
         d="m 1461.4,574.695 c 7.32,-12.832 17.28,-23.023 29.88,-30.593 12.6,-7.559 26.56,-11.34 41.93,-11.34 14.89,0 28.44,3.781 40.69,11.34 12.24,7.57 21.83,17.761 28.79,30.593 6.97,12.844 10.44,26.946 10.44,42.309 0,15.348 -3.59,29.457 -10.8,42.297 -7.2,12.836 -17.05,22.98 -29.51,30.422 -12.5,7.433 -26.17,11.16 -41.05,11.16 -15.12,0 -28.85,-3.727 -41.21,-11.16 -12.37,-7.442 -22.15,-17.586 -29.34,-30.422 -7.21,-12.84 -10.8,-26.949 -10.8,-42.297 0,-15.363 3.65,-29.465 10.98,-42.309 z m 220.48,-89.812 h -122.75 c -9.61,-1.914 -18.85,-2.879 -27.71,-2.879 -24.5,0 -47.05,6.051 -67.68,18.18 -20.65,12.113 -37.03,28.496 -49.15,49.14 -12.12,20.637 -18.18,43.203 -18.18,67.68 0,24.004 6.06,46.437 18.18,67.316 12.12,20.883 28.56,37.5 49.33,49.864 20.76,12.359 43.26,18.539 67.5,18.539 24.23,0 46.73,-6.18 67.5,-18.539 20.76,-12.364 37.3,-28.981 49.66,-49.864 12.37,-20.879 18.56,-43.312 18.56,-67.316 0,-14.887 -2.4,-29.223 -7.21,-43.02 -4.8,-13.8 -11.52,-26.457 -20.15,-37.98 h 42.1 v -51.121" /><path
         id="path52"
         style="fill:#ffffff;fill-opacity:1;fill-rule:nonzero;stroke:none"
         d="m 1788.46,558.68 c 5.04,-7.676 11.75,-13.926 20.15,-18.719 8.4,-4.797 17.4,-7.199 27.01,-7.199 10.31,0 19.79,2.402 28.43,7.199 8.65,4.793 15.42,11.043 20.34,18.719 4.92,7.675 7.39,15.722 7.39,24.121 v 167.043 h 51.47 V 581.727 c 0,-18.965 -4.8,-36.075 -14.39,-51.305 -9.61,-15.238 -22.63,-27.121 -39.07,-35.637 -16.44,-8.527 -34.5,-12.781 -54.17,-12.781 -19.69,0 -37.69,4.254 -54.01,12.781 -16.32,8.516 -29.22,20.399 -38.7,35.637 -9.48,15.23 -14.22,32.34 -14.22,51.305 v 168.117 h 52.2 V 582.801 c 0,-8.399 2.52,-16.446 7.57,-24.121" /><path
         id="path54"
         style="fill:#ffffff;fill-opacity:1;fill-rule:nonzero;stroke:none"
         d="m 2051.48,767.125 96,19.184 29.81,-19.985 z m 135.49,-17.281 v -50.403 h -128.52 v -56.519 h 113.76 v -50.395 h -113.76 v -57.246 h 133.56 v -50.398 h -185.76 v 264.961 h 180.72" /><path
         id="path56"
         style="fill:#ffffff;fill-opacity:1;fill-rule:nonzero;stroke:none"
         d="m 2361.39,540.867 c 7.56,4.914 11.33,12.285 11.33,22.129 0,18.731 -14.88,28.086 -44.63,28.086 h -29.89 v -57.598 h 33.49 c 12.24,0 22.14,2.461 29.7,7.383 z m -63.19,100.617 h 31.68 c 9.6,0 17.04,2.934 22.33,8.817 5.27,5.879 7.92,13.14 7.92,21.785 0,8.871 -3.01,15.656 -9.01,20.336 -5.99,4.683 -14.27,7.019 -24.83,7.019 h -28.09 z m 116.83,-42.296 c 7.79,-10.45 11.7,-22.5 11.7,-36.192 0,-26.875 -8.82,-46.617 -26.47,-59.219 -17.63,-12.597 -39.65,-18.894 -66.05,-18.894 h -88.2 v 264.961 h 77.76 c 28.08,0 50.16,-5.703 66.24,-17.102 16.07,-11.398 24.12,-27.898 24.12,-49.5 0,-13.203 -2.76,-24.785 -8.28,-34.742 -5.53,-9.953 -13.32,-17.945 -23.4,-23.941 13.92,-6.485 24.78,-14.942 32.58,-25.371" /><path
         id="path58"
         style="fill:#ffffff;fill-opacity:1;fill-rule:nonzero;stroke:none"
         d="m 2659.65,749.844 v -50.403 h -128.53 v -56.519 h 113.76 v -50.395 h -113.76 v -57.246 h 133.57 v -50.398 h -185.76 v 264.961 h 180.72" /><path
         id="path60"
         style="fill:#ffffff;fill-opacity:1;fill-rule:nonzero;stroke:none"
         d="m 2885.36,490.281 c -14.64,-5.515 -30.59,-8.277 -47.88,-8.277 -27.6,0 -51.6,5.992 -72,18.004 -20.4,11.996 -36,28.125 -46.8,48.418 -10.8,20.273 -16.2,42.531 -16.2,66.777 0,26.641 5.4,50.399 16.2,71.281 10.8,20.879 25.92,37.133 45.36,48.778 19.45,11.636 41.88,17.461 67.33,17.461 16.07,0 30.95,-2.16 44.64,-6.477 13.67,-4.324 25.67,-9.723 35.99,-16.203 l -20.52,-49.32 c -18.96,14.398 -38.4,21.601 -58.32,21.601 -13.44,0 -26.04,-3.726 -37.8,-11.164 -11.76,-7.441 -21.12,-17.582 -28.07,-30.418 -6.97,-12.844 -10.44,-27.062 -10.44,-42.668 0,-17.027 3.23,-31.972 9.71,-44.812 6.49,-12.84 15.72,-22.864 27.73,-30.059 11.99,-7.199 26.03,-10.801 42.12,-10.801 12.96,0 24.59,2.102 34.91,6.297 10.32,4.199 18.48,9.18 24.48,14.942 l 21.6,-46.797 c -6.72,-5.528 -17.4,-11.043 -32.04,-16.563" /><path
         id="path62"
         style="fill:#ffffff;fill-opacity:1;fill-rule:nonzero;stroke:none"
         d="m 45.2344,764.242 95.9926,19.184 29.824,-19.985 z M 180.723,746.965 V 696.563 H 52.1992 V 640.039 H 165.957 V 589.648 H 52.1992 V 532.402 H 185.762 V 482.004 H 0 v 264.961 h 180.723" /></g></g></svg>