<?xml version="1.0" encoding="UTF-8" standalone="no"?>
<svg
   xmlns:dc="http://purl.org/dc/elements/1.1/"
   xmlns:cc="http://creativecommons.org/ns#"
   xmlns:rdf="http://www.w3.org/1999/02/22-rdf-syntax-ns#"
   xmlns:svg="http://www.w3.org/2000/svg"
   xmlns="http://www.w3.org/2000/svg"
   viewBox="0 0 293.58429 163.19083"
   height="163.19083"
   width="293.58429"
   xml:space="preserve"
   id="svg2"
   version="1.1"><metadata
     id="metadata8"><rdf:RDF><cc:Work
         rdf:about=""><dc:format>image/svg+xml</dc:format><dc:type
           rdf:resource="http://purl.org/dc/dcmitype/StillImage" /></cc:Work></rdf:RDF></metadata><defs
     id="defs6" /><g
     transform="matrix(1.3333333,0,0,-1.3333333,-29.054327,163.1908)"
     id="g10"><g
       transform="scale(0.1)"
       id="g12"><path
         id="path14"
         style="fill:none;stroke:#ffffff;stroke-width:10;stroke-linecap:butt;stroke-linejoin:miter;stroke-miterlimit:10;stroke-dasharray:none;stroke-opacity:1"
         d="m 1565.15,264.785 c -69.91,-69.906 -161.74,-104.887 -253.59,-104.887 -91.84,0 -183.66,34.981 -253.6,104.887 -37.34,37.356 -64.608,80.996 -82.007,127.52 h -78.851 c 20.378,-67.313 57.14,-128.985 108.268,-180.106 168.84,-168.8201 443.57,-168.8201 612.38,0 52.04,52.039 87.98,114.149 107.94,180.106 h -78.51 c -17.39,-46.524 -44.68,-90.164 -82.03,-127.52 z" /><path
         id="path16"
         style="fill:none;stroke:#ffffff;stroke-width:10;stroke-linecap:butt;stroke-linejoin:miter;stroke-miterlimit:10;stroke-dasharray:none;stroke-opacity:1"
         d="m 1047.96,959.105 c 139.84,139.855 367.38,139.855 507.19,0 37.37,-37.355 64.65,-81.011 82.05,-127.554 h 78.51 c -19.96,65.972 -55.91,128.101 -107.96,180.149 -81.78,81.78 -190.53,126.85 -306.19,126.85 -115.66,0 -224.41,-45.07 -306.189,-126.85 C 944.234,960.563 907.465,898.879 887.09,831.551 h 78.844 c 17.39,46.543 44.676,90.199 82.026,127.554 z" /><path
         id="path18"
         style="fill:none;stroke:#ffffff;stroke-width:10;stroke-linecap:butt;stroke-linejoin:miter;stroke-miterlimit:10;stroke-dasharray:none;stroke-opacity:1"
         d="M 306.684,106.352 442.715,242.383 292.793,392.305 h -59.262 c 11.297,-97.539 35.512,-193.836 73.153,-285.953 z" /><path
         id="path20"
         style="fill:none;stroke:#ffffff;stroke-width:10;stroke-linecap:butt;stroke-linejoin:miter;stroke-miterlimit:10;stroke-dasharray:none;stroke-opacity:1"
         d="M 483.438,283.098 592.656,392.305 H 374.23 Z" /><path
         id="path22"
         style="fill:none;stroke:#ffffff;stroke-width:10;stroke-linecap:butt;stroke-linejoin:miter;stroke-miterlimit:10;stroke-dasharray:none;stroke-opacity:1"
         d="M 1678.18,192.469 1863.62,7.07031 2098.96,242.383 1949.06,392.305 h -163.67 c -19.09,-72.188 -54.73,-140.86 -107.21,-199.836 z" /><path
         id="path24"
         style="fill:none;stroke:#ffffff;stroke-width:10;stroke-linecap:butt;stroke-linejoin:miter;stroke-miterlimit:10;stroke-dasharray:none;stroke-opacity:1"
         d="M 524.148,242.383 759.492,7.07031 944.934,192.469 C 892.48,251.445 856.824,320.117 837.766,392.305 H 674.094 Z" /><path
         id="path26"
         style="fill:none;stroke:#ffffff;stroke-width:10;stroke-linecap:butt;stroke-linejoin:miter;stroke-miterlimit:10;stroke-dasharray:none;stroke-opacity:1"
         d="M 934.934,1031.42 749.492,1216.86 514.18,981.551 l 150,-150 h 163.562 c 19.082,72.207 54.719,140.91 107.192,199.869 z" /><path
         id="path28"
         style="fill:none;stroke:#ffffff;stroke-width:10;stroke-linecap:butt;stroke-linejoin:miter;stroke-miterlimit:10;stroke-dasharray:none;stroke-opacity:1"
         d="m 2088.96,981.551 -235.34,235.309 -185.44,-185.44 c 52.5,-58.959 88.12,-127.635 107.2,-199.869 h 163.58 z" /><path
         id="path30"
         style="fill:none;stroke:#ffffff;stroke-width:10;stroke-linecap:butt;stroke-linejoin:miter;stroke-miterlimit:10;stroke-dasharray:none;stroke-opacity:1"
         d="M 473.461,940.824 364.184,831.551 h 218.543 z" /><path
         id="path32"
         style="fill:none;stroke:#ffffff;stroke-width:10;stroke-linecap:butt;stroke-linejoin:miter;stroke-miterlimit:10;stroke-dasharray:none;stroke-opacity:1"
         d="M 432.715,981.551 296.684,1117.58 C 259.031,1025.44 234.82,929.113 223.52,831.551 h 59.199 z" /><path
         id="path34"
         style="fill:none;stroke:#ffffff;stroke-width:10;stroke-linecap:butt;stroke-linejoin:miter;stroke-miterlimit:10;stroke-dasharray:none;stroke-opacity:1"
         d="M 2129.69,940.824 2020.42,831.551 h 218.53 z" /><path
         id="path36"
         style="fill:none;stroke:#ffffff;stroke-width:10;stroke-linecap:butt;stroke-linejoin:miter;stroke-miterlimit:10;stroke-dasharray:none;stroke-opacity:1"
         d="m 2139.69,283.098 109.2,109.207 h -218.41 z" /><path
         id="path38"
         style="fill:none;stroke:#ffffff;stroke-width:10;stroke-linecap:butt;stroke-linejoin:miter;stroke-miterlimit:10;stroke-dasharray:none;stroke-opacity:1"
         d="m 2316.46,106.32 c 37.62,92.141 61.83,188.446 73.13,285.985 h -59.26 L 2180.41,242.383 Z" /><path
         id="path40"
         style="fill:none;stroke:#ffffff;stroke-width:10;stroke-linecap:butt;stroke-linejoin:miter;stroke-miterlimit:10;stroke-dasharray:none;stroke-opacity:1"
         d="m 2306.46,1117.58 -136.05,-136.029 149.99,-150 h 59.21 c -11.28,97.562 -35.52,193.889 -73.15,286.029 z" /><g
         transform="scale(10)"
         id="g42"><text
           id="text46"
           style="font-variant:normal;font-weight:600;font-size:43px;font-family:JosefinSans;-inkscape-font-specification:JosefinSans-SemiBold;writing-mode:lr-tb;fill:#ffffff;fill-opacity:1;fill-rule:nonzero;stroke:none"
           transform="matrix(1,0,0,-1,19.5777,44.3926)"><tspan
             id="tspan44"
             y="0"
             x="0 28.294001 60.801998 90.686996 111.58321 138.6732 168.73021 195.82021">EGC•LABS</tspan></text>
</g></g></g></svg>